# xmcd
#
# Track frame offsets: 
#        150
#        37777
#        68970
#        110717
#        127272
#        169061
#        214539
#        247594
#        270017
#        288484
#        313633
#
# Disc length: 4581 seconds
#
# Revision: 0
# Processed by: cddbd v1.5.2PL0 Copyright (c) Steve Scherf et al.
# Submitted via: ExactAudioCopy v1.0b4
#
DISCID=9511e30b
DTITLE=Jason Ricci and The Bad Kind - Approved By Snakes
DYEAR=2017
DGENRE=Blues
TTITLE0=My True Love Is A Dope Whore
TTITLE1=Something Just Arrived
TTITLE2=Demon Lover
TTITLE3=My Mom's Gonna Yell At You
TTITLE4=Broken Toy - I Fink U Freaky
TTITLE5=Listen Here
TTITLE6=Terrors Of Nightlife
TTITLE7=Got Cleaned Up
TTITLE8=I'm Too Strong For You
TTITLE9=Disconnect
TTITLE10=515
EXTD=
EXTT0=
EXTT1=
EXTT2=
EXTT3=
EXTT4=
EXTT5=
EXTT6=
EXTT7=
EXTT8=
EXTT9=
EXTT10=
PLAYORDER=
